<?xml version="1.0" standalone="no"?>
<!DOCTYPE svg PUBLIC "-//W3C//DTD SVG 20010904//EN"
 "http://www.w3.org/TR/2001/REC-SVG-20010904/DTD/svg10.dtd">
<svg version="1.0" xmlns="http://www.w3.org/2000/svg"
 width="200.000000pt" height="200.000000pt" viewBox="0 0 200.000000 200.000000"
 preserveAspectRatio="xMidYMid meet">

<g transform="translate(0.000000,200.000000) scale(0.100000,-0.100000)"
fill="#000000" stroke="none">
<path d="M0 1910 c0 -53 4 -90 10 -90 6 0 10 33 10 80 l0 80 75 0 c43 0 75 4
75 10 0 6 -35 10 -85 10 l-85 0 0 -90z"/>
<path d="M1825 1990 c-4 -6 21 -10 74 -10 l81 0 0 -82 c0 -57 3 -79 10 -72 6
6 10 44 8 90 l-3 79 -82 3 c-49 2 -84 -1 -88 -8z"/>
<path d="M642 1377 l-482 -482 0 -213 0 -212 685 0 685 0 0 215 0 215 -611 0
-610 0 448 444 448 444 -34 36 c-19 20 -37 36 -41 36 -3 0 -222 -217 -488
-483z m838 -717 l0 -130 -635 0 -635 0 0 130 0 130 635 0 635 0 0 -130z"/>
<path d="M1400 1466 c-80 -68 -145 -129 -145 -135 0 -6 68 -68 150 -137 l150
-126 3 66 3 66 159 0 160 0 0 130 0 129 -157 3 -158 3 -3 63 c-2 34 -6 62 -10
61 -4 0 -72 -56 -152 -123z m110 -21 l0 -35 155 0 155 0 0 -80 0 -80 -154 0
-155 0 -3 -36 -3 -37 -88 73 c-48 40 -86 78 -84 83 3 11 159 146 170 146 4 1
7 -15 7 -34z"/>
<path d="M0 85 l0 -85 85 0 c50 0 85 4 85 10 0 6 -32 10 -75 10 l-75 0 0 75
c0 43 -4 75 -10 75 -6 0 -10 -35 -10 -85z"/>
<path d="M1980 95 l0 -75 -80 0 c-47 0 -80 -4 -80 -10 0 -6 37 -10 90 -10 l90
0 0 85 c0 50 -4 85 -10 85 -6 0 -10 -32 -10 -75z"/>
</g>
</svg>

